# File created by Blade
# Date/Time:  Fri Jan 16 15:45:56 2015
#---------------------------------------------------------
:version 1.10
:name HOM
:units
  mass 1.0
  length 1.000000
  angle deg
:documentation
     Acclaim Skeleton File
:root
   axis xyz
   order TX TY TZ RX RY RZ
   position 0.000000 0.000000 0.000000
   orientation 0 0 0
:bonedata
   begin
      id 1
      name Spine_dum
      direction 0.000000 1.000000 0.000000
      length 7.170412
      axis 0.0 0.0 0.0 xyz
   end
   begin
      id 2
      name LeftUpLeg_dum
      direction 1.000000 0.000000 0.000000
      length 4.318350
      axis 0.0 0.0 0.0 xyz
   end
   begin
      id 3
      name RightUpLeg_dum
      direction -1.000000 0.000000 0.000000
      length 4.318350
      axis 0.0 0.0 0.0 xyz
   end
   begin
      id 4
      name Spine
      direction 0.000000 1.000000 0.000000
      length 0.000000
      axis 0.0 0.0 0.0 xyz
      dof rx ry rz
   end
   begin
      id 5
      name Spine_dum1
      direction 0.000000 1.000000 0.000000
      length 14.276153
      axis 0.0 0.0 0.0 xyz
   end
   begin
      id 6
      name Spine_dum2
      direction 0.000000 1.000000 0.000000
      length 10.718243
      axis 0.0 0.0 0.0 xyz
   end
   begin
      id 7
      name Spine_dum3
      direction 0.000000 1.000000 0.000000
      length 10.718243
      axis 0.0 0.0 0.0 xyz
   end
   begin
      id 8
      name Head
      direction 0.000000 1.000000 0.000000
      length 4.527550
      axis 0.0 0.0 0.0 xyz
      dof rx ry rz
   end
   begin
      id 9
      name LeftShoulder
      direction 1.000000 0.000000 0.000000
      length 7.058872
      axis 0.0 0.0 -90.0 xyz
      dof rx ry rz
   end
   begin
      id 10
      name LeftArm
      direction 1.000000 0.000000 0.000000
      length 10.955525
      axis 0.0 0.0 -90.0 xyz
      dof rx ry rz
   end
   begin
      id 11
      name LeftForeArm
      direction 1.000000 0.000000 0.000000
      length 8.193716
      axis 0.0 0.0 -90.0 xyz
      dof ry rz rx
   end
   begin
      id 12
      name LeftHand
      direction 0.000000 0.000000 0.000000
      length 0.000000
      axis 0.0 0.0 -90.0 xyz
      dof rx ry rz
   end
   begin
      id 13
      name LeftHand_dum1
      direction 0.000000 0.000000 0.000000
      length 0.000000
      axis 0.0 0.0 -90.0 xyz
   end
   begin
      id 14
      name LeftHand_dum2
      direction 1.000000 0.000000 0.000000
      length 3.937000
      axis 0.0 0.0 -90.0 xyz
   end
   begin
      id 15
      name LeftHandThumb1
      direction 0.000000 0.000000 1.000000
      length 3.937000
      axis 0.0 0.0 -90.0 xyz
      dof rx rz ry
   end
   begin
      id 16
      name RightShoulder
      direction -1.000000 0.000000 0.000000
      length 7.058872
      axis 0.0 0.0 90.0 xyz
      dof rx ry rz
   end
   begin
      id 17
      name RightArm
      direction -1.000000 0.000000 0.000000
      length 10.955525
      axis 0.0 0.0 90.0 xyz
      dof rx ry rz
   end
   begin
      id 18
      name RightForeArm
      direction -1.000000 0.000000 0.000000
      length 8.193716
      axis 0.0 0.0 90.0 xyz
      dof ry rz rx
   end
   begin
      id 19
      name RightHand
      direction 0.000000 0.000000 0.000000
      length 0.000000
      axis 0.0 0.0 90.0 xyz
      dof rx ry rz
   end
   begin
      id 20
      name RightHand_dum1
      direction 0.000000 0.000000 0.000000
      length 0.000000
      axis 0.0 0.0 90.0 xyz
   end
   begin
      id 21
      name RightHand_dum2
      direction -1.000000 0.000000 0.000000
      length 3.937000
      axis 0.0 0.0 90.0 xyz
   end
   begin
      id 22
      name RightHandThumb1
      direction 0.000000 0.000000 1.000000
      length 3.937000
      axis 0.0 0.0 90.0 xyz
      dof rx rz ry
   end
   begin
      id 23
      name LeftUpLeg
      direction 0.000000 -1.000000 0.000000
      length 17.323638
      axis 0.0 0.0 0.0 xyz
      dof rx ry rz
   end
   begin
      id 24
      name LeftLeg
      direction 0.000000 -1.000000 0.000000
      length 16.270368
      axis 0.0 0.0 0.0 xyz
      dof rx ry rz
   end
   begin
      id 25
      name LeftFoot
      direction 0.000000 -0.258819 0.965926
      length 4.922846
      axis 15.0 0.0 0.0 xyz
      dof rx ry rz
   end
   begin
      id 26
      name LeftToeBase
      direction 0.000000 0.000000 1.000000
      length 2.952750
      axis 0.0 0.0 0.0 xyz
      dof rx ry rz
   end
   begin
      id 27
      name RightUpLeg
      direction 0.000000 -1.000000 0.000000
      length 17.323638
      axis 0.0 0.0 0.0 xyz
      dof rx ry rz
   end
   begin
      id 28
      name RightLeg
      direction 0.000000 -1.000000 0.000000
      length 16.270368
      axis 0.0 0.0 0.0 xyz
      dof rx ry rz
   end
   begin
      id 29
      name RightFoot
      direction 0.000000 -0.258819 0.965926
      length 4.922846
      axis 15.0 0.0 0.0 xyz
      dof rx ry rz
   end
   begin
      id 30
      name RightToeBase
      direction 0.000000 0.000000 1.000000
      length 2.952750
      axis 0.0 0.0 0.0 xyz
      dof rx ry rz
   end
:hierarchy
   begin
      root Spine_dum LeftUpLeg_dum RightUpLeg_dum
      Spine_dum Spine
      LeftUpLeg_dum LeftUpLeg
      RightUpLeg_dum RightUpLeg
      Spine Spine_dum1 Spine_dum2 Spine_dum3
      Spine_dum1 Head
      Spine_dum2 LeftShoulder
      Spine_dum3 RightShoulder
      LeftShoulder LeftArm
      LeftArm LeftForeArm
      LeftForeArm LeftHand
      LeftHand LeftHand_dum1 LeftHand_dum2
      LeftHand_dum1 LeftHandThumb1
      RightShoulder RightArm
      RightArm RightForeArm
      RightForeArm RightHand
      RightHand RightHand_dum1 RightHand_dum2
      RightHand_dum1 RightHandThumb1
      LeftUpLeg LeftLeg
      LeftLeg LeftFoot
      LeftFoot LeftToeBase
      RightUpLeg RightLeg
      RightLeg RightFoot
      RightFoot RightToeBase
   end

# File created by Blade
# Date/Time:  Fri Jan 16 15:45:48 2015
# Frame Rate: 120.000 fps
#------------------------------------------------------
:FULLY-SPECIFIED
:DEGREES
2893
root -6.195376 35.178054 -9.458575 -0.940596 13.495584 -3.486769
Spine -10.632395 -2.014382 2.962519
Head 0.227954 -45.563207 -7.593579
LeftShoulder -18.145952 12.708039 -15.974936
LeftArm 16.568384 3.347752 -68.037199
LeftForeArm 12.443595 -0.000000 10.727335
LeftHand 2.522176 0.000000 -8.272427
LeftHandThumb1 -26.253704 0.000000 33.147579
RightShoulder -6.847194 24.536654 -35.468337
RightArm 25.668068 49.695775 9.564652
RightForeArm -0.482014 0.000000 48.963320
RightHand 2.635135 -0.000000 -13.797428
RightHandThumb1 -24.326973 -0.000000 -32.862282
LeftUpLeg 6.619612 1.200206 5.955158
LeftLeg -7.766998 -0.000000 0.000000
LeftFoot -13.091190 21.759199 -9.289953
LeftToeBase 22.537174 -0.000000 -0.000000
RightUpLeg 10.378480 -14.201188 1.796658
RightLeg -4.083182 -0.000000 0.000000
RightFoot -9.502261 -34.019778 7.294397
RightToeBase 13.209661 -0.000000 -0.000000
2894
root -6.195485 35.179242 -9.463336 -0.928362 13.328618 -3.521680
Spine -10.620303 -2.014033 3.090483
Head 0.247761 -45.447777 -7.675121
LeftShoulder -18.199003 12.725686 -16.009163
LeftArm 16.586052 3.308958 -68.052623
LeftForeArm 12.481916 -0.000000 10.801030
LeftHand 2.490751 -0.000000 -8.361417
LeftHandThumb1 -26.253704 0.000000 33.147579
RightShoulder -6.819890 24.503345 -35.455905
RightArm 25.850808 50.033157 9.791903
RightForeArm -0.597133 -0.000000 50.118744
RightHand 2.592820 -0.000000 -13.931450
RightHandThumb1 -24.326973 -0.000000 -32.862282
LeftUpLeg 6.652419 1.308541 5.989739
LeftLeg -7.811992 -0.000000 0.000000
LeftFoot -13.107277 21.794514 -9.321149
LeftToeBase 22.554751 -0.000000 -0.000000
RightUpLeg 10.321392 -14.139211 1.824337
RightLeg -4.053514 -0.000000 0.000000
RightFoot -9.468931 -33.920203 7.283394
RightToeBase 13.182294 -0.000000 -0.000000
2895
root -6.194533 35.180021 -9.467487 -0.913044 13.171092 -3.547938
Spine -10.607175 -1.968841 3.188346
Head 0.253604 -45.390737 -7.726542
LeftShoulder -18.214010 12.763128 -16.031141
LeftArm 16.631007 3.351988 -68.033145
LeftForeArm 12.411000 -0.000000 10.869134
LeftHand 2.535071 0.000000 -8.378286
LeftHandThumb1 -26.253704 0.000000 33.147579
RightShoulder -6.852735 24.488481 -35.445109
RightArm 26.104946 50.334055 10.016499
RightForeArm -0.636296 -0.000000 51.111464
RightHand 2.837102 -0.000000 -14.346189
RightHandThumb1 -24.326973 -0.000000 -32.862282
LeftUpLeg 6.678414 1.385709 6.011373
LeftLeg -7.841278 -0.000000 0.000000
LeftFoot -13.104644 21.869563 -9.294006
LeftToeBase 22.532159 -0.000000 -0.000000
RightUpLeg 10.266263 -14.053153 1.847318
RightLeg -4.026371 -0.000000 0.000000
RightFoot -9.456398 -33.854749 7.269984
RightToeBase 13.209632 -0.000000 -0.000000
2896
root -6.195938 35.180861 -9.473894 -0.886161 13.098632 -3.559856
Spine -10.595222 -1.996337 3.245653
Head 0.234159 -45.318088 -7.725691
LeftShoulder -18.216096 12.793309 -16.028724
LeftArm 16.649727 3.259881 -68.072889
LeftForeArm 12.504278 -0.000000 11.008704
LeftHand 2.480678 0.000000 -8.409031
LeftHandThumb1 -26.253704 0.000000 33.147579
RightShoulder -6.937207 24.495485 -35.442167
RightArm 26.425815 50.578254 10.288165
RightForeArm -0.598432 -0.000000 51.996065
RightHand 2.987336 -0.000000 -14.653073
RightHandThumb1 -24.326973 -0.000000 -32.862282
LeftUpLeg 6.652095 1.386983 6.019434
LeftLeg -7.828442 -0.000000 0.000000
LeftFoot -13.128415 21.927000 -9.306532
LeftToeBase 22.551143 -0.000000 -0.000000
RightUpLeg 10.217974 -14.042707 1.860111
RightLeg -4.023215 -0.000000 0.000000
RightFoot -9.436535 -33.785566 7.278106
RightToeBase 13.152955 -0.000000 -0.000000
2897
root -6.196507 35.180988 -9.477686 -0.876453 13.030846 -3.572036
Spine -10.567916 -2.019506 3.290863
Head 0.209498 -45.253913 -7.676966
LeftShoulder -18.242170 12.769767 -16.032958
LeftArm 16.683218 3.303096 -68.027711
LeftForeArm 12.434918 -0.000000 11.067838
LeftHand 2.522943 -0.000000 -8.445945
LeftHandThumb1 -26.253704 0.000000 33.147579
RightShoulder -7.030215 24.454536 -35.419906
RightArm 26.818801 50.872191 10.567477
RightForeArm -0.555522 0.000000 52.705008
RightHand 3.215971 -0.000000 -15.069403
RightHandThumb1 -24.326973 -0.000000 -32.862282
LeftUpLeg 6.650906 1.378706 6.029939
LeftLeg -7.829897 -0.000000 0.000000
LeftFoot -13.137196 21.987708 -9.310281
LeftToeBase 22.511180 -0.000000 -0.000000
RightUpLeg 10.194697 -14.056362 1.867559
RightLeg -4.025165 -0.000000 0.000000
RightFoot -9.422339 -33.720206 7.255296
RightToeBase 13.217746 -0.000000 -0.000000
2898
root -6.195176 35.180896 -9.482080 -0.853514 12.937102 -3.600803
Spine -10.560082 -1.995079 3.368521
Head 0.189753 -45.202865 -7.647401
LeftShoulder -18.271067 12.740451 -16.040597
LeftArm 16.724356 3.272725 -68.028520
LeftForeArm 12.437819 -0.000000 11.106892
LeftHand 2.567158 -0.000000 -8.519313
LeftHandThumb1 -26.253704 0.000000 33.147579
RightShoulder -7.120063 24.376925 -35.417429
RightArm 27.216027 51.151609 10.786083
RightForeArm -0.448867 -0.000000 53.262606
RightHand 3.379166 -0.000000 -15.865124
RightHandThumb1 -24.326973 -0.000000 -32.862282
LeftUpLeg 6.649355 1.452076 6.056459
LeftLeg -7.855129 -0.000000 0.000000
LeftFoot -13.145398 21.997821 -9.288414
LeftToeBase 22.551709 -0.000000 -0.000000
RightUpLeg 10.145612 -14.020295 1.892988
RightLeg -4.016163 -0.000000 0.000000
RightFoot -9.387302 -33.660134 7.241392
RightToeBase 13.165458 -0.000000 -0.000000
2899
root -6.195083 35.180558 -9.489327 -0.809172 12.890645 -3.597782
Spine -10.563100 -2.021489 3.389012
Head 0.169557 -45.140199 -7.574518
LeftShoulder -18.310671 12.712698 -16.030087
LeftArm 16.772350 3.231015 -68.040085
LeftForeArm 12.469180 -0.000000 11.180303
LeftHand 2.502542 -0.000000 -8.478356
LeftHandThumb1 -26.253704 0.000000 33.147579
RightShoulder -7.213674 24.288318 -35.385848
RightArm 27.650749 51.443561 10.997395
RightForeArm -0.244275 -0.000000 53.685043
RightHand 3.642922 0.000000 -16.197179
RightHandThumb1 -24.326973 -0.000000 -32.862282
LeftUpLeg 6.602452 1.425399 6.046388
LeftLeg -7.844078 -0.000000 0.000000
LeftFoot -13.162217 22.060681 -9.307310
LeftToeBase 22.533319 -0.000000 -0.000000
RightUpLeg 10.084858 -13.987082 1.902687
RightLeg -4.020227 -0.000000 0.000000
RightFoot -9.366480 -33.679311 7.163880
RightToeBase 13.220713 -0.000000 -0.000000
2900
root -6.195057 35.180479 -9.495882 -0.773543 12.849467 -3.613705
Spine -10.560971 -2.039353 3.436017
Head 0.144730 -45.099546 -7.511979
LeftShoulder -18.346781 12.646519 -16.027781
LeftArm 16.794551 3.205591 -68.033490
LeftForeArm 12.388309 -0.000000 11.260215
LeftHand 2.518157 -0.000000 -8.426593
LeftHandThumb1 -26.253704 0.000000 33.147579
RightShoulder -7.343944 24.256713 -35.407461
RightArm 28.110875 51.661137 11.234115
RightForeArm -0.082228 -0.000000 53.980724
RightHand 3.818394 -0.000000 -16.663606
RightHandThumb1 -24.326973 -0.000000 -32.862282
LeftUpLeg 6.560555 1.436451 6.059392
LeftLeg -7.839154 -0.000000 0.000000
LeftFoot -13.167587 22.083530 -9.296581
LeftToeBase 22.511965 -0.000000 -0.000000
RightUpLeg 10.030024 -13.970803 1.924586
RightLeg -4.019691 -0.000000 0.000000
RightFoot -9.359079 -33.638785 7.188095
RightToeBase 13.191163 -0.000000 -0.000000
2901
root -6.193273 35.179218 -9.503031 -0.746017 12.817940 -3.630478
Spine -10.545791 -2.061967 3.492995
Head 0.098280 -45.065411 -7.448945
LeftShoulder -18.387809 12.590283 -16.032297
LeftArm 16.830224 3.147564 -68.050243
LeftForeArm 12.352144 0.000000 11.337809
LeftHand 2.585971 -0.000000 -8.202377
LeftHandThumb1 -26.253704 0.000000 33.147579
RightShoulder -7.453808 24.249925 -35.480569
RightArm 28.518801 51.887559 11.476382
RightForeArm 0.117240 -0.000000 54.174685
RightHand 4.103029 -0.000000 -16.939830
RightHandThumb1 -24.326973 -0.000000 -32.862282
LeftUpLeg 6.543757 1.518327 6.072495
LeftLeg -7.881277 -0.000000 0.000000
LeftFoot -13.142186 22.058472 -9.221705
LeftToeBase 22.554624 -0.000000 -0.000000
RightUpLeg 9.982767 -13.955310 1.944581
RightLeg -4.017642 -0.000000 0.000000
RightFoot -9.323859 -33.634227 7.115329
RightToeBase 13.237807 -0.000000 -0.000000
